<mxfile host="www.draw.io" modified="2020-01-09T20:21:58.698Z" agent="Mozilla/5.0 (X11; Linux x86_64) AppleWebKit/537.36 (KHTML, like Gecko) Ubuntu Chromium/79.0.3945.79 Chrome/79.0.3945.79 Safari/537.36" etag="WBD1sUSYM0-HM7_CBlHW" version="12.5.1" type="github" pages="2">
  <diagram id="Wvw79BVs7ywlbxN4iDUW" name="feature">
    <mxGraphModel dx="807" dy="451" grid="1" gridSize="10" guides="1" tooltips="1" connect="1" arrows="1" fold="1" page="1" pageScale="1" pageWidth="850" pageHeight="1100" math="0" shadow="0">
      <root>
        <mxCell id="0"/>
        <mxCell id="1" parent="0"/>
        <mxCell id="HP1bC2M_v0rm4v-MXqI4-1" value="" style="rounded=0;whiteSpace=wrap;html=1;" vertex="1" parent="1">
          <mxGeometry x="180" y="120" width="120" height="60" as="geometry"/>
        </mxCell>
      </root>
    </mxGraphModel>
  </diagram>
  <diagram id="SJpYQz1Y763cWv24Yg3-" name="master">
    <mxGraphModel dx="1047" dy="451" grid="1" gridSize="10" guides="1" tooltips="1" connect="1" arrows="1" fold="1" page="1" pageScale="1" pageWidth="850" pageHeight="1100" math="0" shadow="0">
      <root>
        <mxCell id="-rNcWl0r6lx9_-qSt6O5-0"/>
        <mxCell id="-rNcWl0r6lx9_-qSt6O5-1" parent="-rNcWl0r6lx9_-qSt6O5-0"/>
        <mxCell id="-rNcWl0r6lx9_-qSt6O5-13" style="edgeStyle=orthogonalEdgeStyle;curved=1;rounded=0;orthogonalLoop=1;jettySize=auto;html=1;entryX=0;entryY=0.5;entryDx=0;entryDy=0;fontSize=15;" edge="1" parent="-rNcWl0r6lx9_-qSt6O5-1" source="-rNcWl0r6lx9_-qSt6O5-2" target="-rNcWl0r6lx9_-qSt6O5-12">
          <mxGeometry relative="1" as="geometry">
            <Array as="points">
              <mxPoint x="310" y="265"/>
            </Array>
          </mxGeometry>
        </mxCell>
        <mxCell id="-rNcWl0r6lx9_-qSt6O5-2" value="Unit &amp;amp; Integration Test" style="rounded=0;whiteSpace=wrap;html=1;fillColor=#d5e8d4;strokeColor=#82b366;fontStyle=1;fontSize=15;" vertex="1" parent="-rNcWl0r6lx9_-qSt6O5-1">
          <mxGeometry x="225" y="150" width="170" height="60" as="geometry"/>
        </mxCell>
        <mxCell id="-rNcWl0r6lx9_-qSt6O5-14" style="edgeStyle=orthogonalEdgeStyle;curved=1;rounded=0;orthogonalLoop=1;jettySize=auto;html=1;entryX=1;entryY=0.5;entryDx=0;entryDy=0;fontSize=15;" edge="1" parent="-rNcWl0r6lx9_-qSt6O5-1" source="-rNcWl0r6lx9_-qSt6O5-3" target="-rNcWl0r6lx9_-qSt6O5-12">
          <mxGeometry relative="1" as="geometry">
            <Array as="points">
              <mxPoint x="540" y="265"/>
            </Array>
          </mxGeometry>
        </mxCell>
        <mxCell id="-rNcWl0r6lx9_-qSt6O5-3" value="SonarCloud Scan" style="rounded=0;whiteSpace=wrap;html=1;fillColor=#d5e8d4;strokeColor=#82b366;fontStyle=1;fontSize=15;" vertex="1" parent="-rNcWl0r6lx9_-qSt6O5-1">
          <mxGeometry x="455" y="150" width="170" height="60" as="geometry"/>
        </mxCell>
        <mxCell id="-rNcWl0r6lx9_-qSt6O5-19" style="edgeStyle=orthogonalEdgeStyle;curved=1;rounded=0;orthogonalLoop=1;jettySize=auto;html=1;entryX=0;entryY=0.5;entryDx=0;entryDy=0;fontSize=15;exitX=0.5;exitY=1;exitDx=0;exitDy=0;" edge="1" parent="-rNcWl0r6lx9_-qSt6O5-1" source="-rNcWl0r6lx9_-qSt6O5-4" target="-rNcWl0r6lx9_-qSt6O5-17">
          <mxGeometry relative="1" as="geometry">
            <Array as="points">
              <mxPoint x="310" y="455"/>
            </Array>
          </mxGeometry>
        </mxCell>
        <mxCell id="-rNcWl0r6lx9_-qSt6O5-4" value="GitHub Packages" style="rounded=0;whiteSpace=wrap;html=1;fillColor=#e1d5e7;strokeColor=#9673a6;fontStyle=1;fontSize=15;" vertex="1" parent="-rNcWl0r6lx9_-qSt6O5-1">
          <mxGeometry x="224.71" y="330" width="170" height="60" as="geometry"/>
        </mxCell>
        <mxCell id="-rNcWl0r6lx9_-qSt6O5-20" style="edgeStyle=orthogonalEdgeStyle;curved=1;rounded=0;orthogonalLoop=1;jettySize=auto;html=1;entryX=1;entryY=0.5;entryDx=0;entryDy=0;fontSize=15;" edge="1" parent="-rNcWl0r6lx9_-qSt6O5-1" source="-rNcWl0r6lx9_-qSt6O5-5" target="-rNcWl0r6lx9_-qSt6O5-17">
          <mxGeometry relative="1" as="geometry">
            <Array as="points">
              <mxPoint x="540" y="455"/>
            </Array>
          </mxGeometry>
        </mxCell>
        <mxCell id="-rNcWl0r6lx9_-qSt6O5-5" value="Docker Hub" style="rounded=0;whiteSpace=wrap;html=1;fillColor=#e1d5e7;strokeColor=#9673a6;fontSize=15;fontStyle=1" vertex="1" parent="-rNcWl0r6lx9_-qSt6O5-1">
          <mxGeometry x="454.71" y="330" width="170" height="60" as="geometry"/>
        </mxCell>
        <mxCell id="-rNcWl0r6lx9_-qSt6O5-10" style="edgeStyle=orthogonalEdgeStyle;rounded=0;orthogonalLoop=1;jettySize=auto;html=1;fontSize=15;curved=1;" edge="1" parent="-rNcWl0r6lx9_-qSt6O5-1" source="-rNcWl0r6lx9_-qSt6O5-6" target="-rNcWl0r6lx9_-qSt6O5-2">
          <mxGeometry relative="1" as="geometry"/>
        </mxCell>
        <mxCell id="-rNcWl0r6lx9_-qSt6O5-11" style="edgeStyle=orthogonalEdgeStyle;curved=1;rounded=0;orthogonalLoop=1;jettySize=auto;html=1;fontSize=15;" edge="1" parent="-rNcWl0r6lx9_-qSt6O5-1" source="-rNcWl0r6lx9_-qSt6O5-6" target="-rNcWl0r6lx9_-qSt6O5-3">
          <mxGeometry relative="1" as="geometry"/>
        </mxCell>
        <mxCell id="-rNcWl0r6lx9_-qSt6O5-6" value="" style="ellipse;whiteSpace=wrap;html=1;aspect=fixed;fontSize=15;fillColor=#050505;" vertex="1" parent="-rNcWl0r6lx9_-qSt6O5-1">
          <mxGeometry x="419.57000000000005" y="70" width="10" height="10" as="geometry"/>
        </mxCell>
        <mxCell id="-rNcWl0r6lx9_-qSt6O5-15" style="edgeStyle=orthogonalEdgeStyle;curved=1;rounded=0;orthogonalLoop=1;jettySize=auto;html=1;entryX=0.5;entryY=0;entryDx=0;entryDy=0;fontSize=15;" edge="1" parent="-rNcWl0r6lx9_-qSt6O5-1" source="-rNcWl0r6lx9_-qSt6O5-12" target="-rNcWl0r6lx9_-qSt6O5-4">
          <mxGeometry relative="1" as="geometry"/>
        </mxCell>
        <mxCell id="-rNcWl0r6lx9_-qSt6O5-16" style="edgeStyle=orthogonalEdgeStyle;curved=1;rounded=0;orthogonalLoop=1;jettySize=auto;html=1;fontSize=15;" edge="1" parent="-rNcWl0r6lx9_-qSt6O5-1" source="-rNcWl0r6lx9_-qSt6O5-12" target="-rNcWl0r6lx9_-qSt6O5-5">
          <mxGeometry relative="1" as="geometry"/>
        </mxCell>
        <mxCell id="-rNcWl0r6lx9_-qSt6O5-12" value="" style="ellipse;whiteSpace=wrap;html=1;aspect=fixed;fontSize=15;fillColor=#050505;" vertex="1" parent="-rNcWl0r6lx9_-qSt6O5-1">
          <mxGeometry x="419.57000000000005" y="260" width="10" height="10" as="geometry"/>
        </mxCell>
        <mxCell id="-rNcWl0r6lx9_-qSt6O5-17" value="" style="ellipse;whiteSpace=wrap;html=1;aspect=fixed;fontSize=15;fillColor=#050505;" vertex="1" parent="-rNcWl0r6lx9_-qSt6O5-1">
          <mxGeometry x="419.57000000000005" y="450" width="10" height="10" as="geometry"/>
        </mxCell>
        <mxCell id="-rNcWl0r6lx9_-qSt6O5-22" value="" style="endArrow=none;dashed=1;html=1;fontSize=15;fillColor=#ffe6cc;strokeColor=#d79b00;" edge="1" parent="-rNcWl0r6lx9_-qSt6O5-1">
          <mxGeometry width="50" height="50" relative="1" as="geometry">
            <mxPoint x="60" y="265" as="sourcePoint"/>
            <mxPoint x="780" y="264.5" as="targetPoint"/>
          </mxGeometry>
        </mxCell>
        <mxCell id="-rNcWl0r6lx9_-qSt6O5-23" value="TEST" style="text;html=1;strokeColor=none;fillColor=none;align=center;verticalAlign=middle;whiteSpace=wrap;rounded=0;fontSize=23;fontStyle=1" vertex="1" parent="-rNcWl0r6lx9_-qSt6O5-1">
          <mxGeometry x="90" y="170" width="40" height="20" as="geometry"/>
        </mxCell>
        <mxCell id="-rNcWl0r6lx9_-qSt6O5-26" value="PUBLISH" style="text;html=1;strokeColor=none;fillColor=none;align=center;verticalAlign=middle;whiteSpace=wrap;rounded=0;fontSize=23;fontStyle=1" vertex="1" parent="-rNcWl0r6lx9_-qSt6O5-1">
          <mxGeometry x="90" y="350" width="40" height="20" as="geometry"/>
        </mxCell>
      </root>
    </mxGraphModel>
  </diagram>
</mxfile>
